 http://www.imdb.com/title/tt1345836/


Plot: Eight years on, a new terrorist leader, Bane, overwhelms Gotham's finest, and the Dark Knight resurfaces to protect a city that has branded him an enemy.


Director:
Christopher Nolan

Writers:
Jonathan Nolan (screenplay), Christopher Nolan (screenplay)

Stars:
Christian Bale, Michael Caine and Gary Oldman | See full cast and crew

Genres:
Action | Drama | Thriller


Country:
USA |UK

Language:
English



Format : AVI
Format/Info : Audio Video Interleave
Format profile : OpenDML
File size : 2.43 GiB
Duration : 2h 32mn
Overall bit rate : 2 280 Kbps
Writing library : VirtualDub build 32842/release

Video
ID : 0
Format : MPEG-4 Visual
Format profile : Advanced Simple@L5
Format settings, BVOP : 2
Format settings, QPel : No
Format settings, GMC : No warppoints
Format settings, Matrix : Default (H.263)
Muxing mode : Packed bitstream
Codec ID : XVID
Codec ID/Hint : XviD
Duration : 2h 32mn
Bit rate : 2 140 Kbps
Width : 720 pixels
Height : 304 pixels
Display aspect ratio : 2.35:1
Frame rate : 24.000 fps
Color space : YUV
Chroma subsampling : 4:2:0
Bit depth : 8 bits
Scan type : Progressive
Compression mode : Lossy
Bits/(Pixel*Frame) : 0.407
Stream size : 2.28 GiB (94%)
Writing library : XviD 64

Audio
ID : 1
Format : MPEG Audio
Format version : Version 1
Format profile : Layer 3
Mode : Joint stereo
Mode extension : MS Stereo
Codec ID : 55
Codec ID/Hint : MP3
Duration : 2h 32mn
Bit rate mode : Constant
Bit rate : 128 Kbps
Channel(s) : 2 channels
Sampling rate : 44.1 KHz
Compression mode : Lossy
Delay relative to video : 9ms
Stream size : 140 MiB (6%)
Alignment : Split accross interleaves
Interleave, duration : 42 ms (1.00 video frame)
Interleave, preload duration : 500 ms
Writing library : LAME3.99.5

Source Used


Chinese 720 HDCAM...........Thanks

Toothfairy........................Thanks bro


Screens:


SEED AND HAVE FUN!!!